# xmcd
#
# Track frame offsets:
# 150
# 15801
# 35817
# 49549
# 66792
# 82591
# 101042
# 120012
# 138781
# 150496
# 167834
# 180329
# 193598
# 211426
# 228207
# 246874
# 260962
# 274733
#
# Disc length: 3841 seconds
#
#
# Revision: 0
# Processed by: cddbd v1.4PL0 Copyright (c) Steve Scherf et al.
# Submitted via: FreeRIP 2.12 
#
DISCID=e00eff12
DTITLE=Tabby Thomas - Louisiana Woman
DYEAR=1900
DGENRE=Blues
TTITLE0=Rock Tonight
TTITLE1=Along About Midnight
TTITLE2=Ain't Got a Dime
TTITLE3=No Luck at All
TTITLE4=Candy
TTITLE5=Oh Lordy Lord
TTITLE6=Zulu Party
TTITLE7=Lord, Please Have Mercy
TTITLE8=Bye Bye Darling
TTITLE9=Leave it Like it is
TTITLE10=It Takes a Long Time
TTITLE11=Raining in My Heart
TTITLE12=Mojo Hand
TTITLE13=Louisiana Woman
TTITLE14=So Long
TTITLE15=Luberta
TTITLE16=I Love Big Fat Women
TTITLE17=Gotta Go Now
EXTD=
EXTT0=
EXTT1=
EXTT2=
EXTT3=
EXTT4=
EXTT5=
EXTT6=
EXTT7=
EXTT8=
EXTT9=
EXTT10=
EXTT11=
EXTT12=
EXTT13=
EXTT14=
EXTT15=
EXTT16=
EXTT17=
PLAYORDER=
